Coordinates
version=1
nRows=10
nColumns=63
inDegrees=yes

Units are S.I. units (second, meters, Newtons, ...)
If the header above contains a line with 'inDegrees', this indicates whether rotational values are in degrees (yes) or radians (no).

endheader
time	pelvis_tilt	pelvis_list	pelvis_rotation	pelvis_tx	pelvis_ty	pelvis_tz	hip_flexion_r	hip_adduction_r	hip_rotation_r	knee_angle_r	knee_angle_r_beta	ankle_angle_r	subtalar_angle_r	mtp_angle_r	hip_flexion_l	hip_adduction_l	hip_rotation_l	knee_angle_l	knee_angle_l_beta	ankle_angle_l	subtalar_angle_l	mtp_angle_l	L5_S1_Flex_Ext	L5_S1_Lat_Bending	L5_S1_axial_rotation	L4_L5_Flex_Ext	L4_L5_Lat_Bending	L4_L5_axial_rotation	L3_L4_Flex_Ext	L3_L4_Lat_Bending	L3_L4_axial_rotation	L2_L3_Flex_Ext	L2_L3_Lat_Bending	L2_L3_axial_rotation	L1_L2_Flex_Ext	L1_L2_Lat_Bending	L1_L2_axial_rotation	L1_T12_Flex_Ext	L1_T12_Lat_Bending	L1_T12_axial_rotation	Abs_r3	Abs_r2	Abs_r1	Abs_t1	Abs_t2	neck_flexion	neck_bending	neck_rotation	arm_flex_r	arm_add_r	arm_rot_r	elbow_flex_r	pro_sup_r	wrist_flex_r	wrist_dev_r	arm_flex_l	arm_add_l	arm_rot_l	elbow_flex_l	pro_sup_l	wrist_flex_l	wrist_dev_l
      2.86440678	     -0.38251366	     -8.61269733	     89.47840944	      0.19578389	      0.87898752	      0.63258867	      4.79861241	     -0.74835726	      3.17599907	      7.34296585	      0.12815893	     28.85474730	      5.20737136	      0.00000000	      8.35124349	      1.08589091	     13.36984824	     13.27269517	      0.23165223	     29.56841970	     -9.74611191	      0.00000000	      0.09893488	     -0.11859710	     -0.52772494	      0.18373196	     -0.15773414	     -0.56070775	      0.16254011	     -0.28835699	     -0.56070775	      0.11307267	     -0.28835699	     -0.46175933	      0.09187093	     -0.24184320	     -0.42877652	      0.05653139	     -0.18370691	     -0.39579371	      0.70668193	     -1.34159411	     -2.93504783	      0.00000000	      0.00000000	     27.56821564	     11.39232000	      7.30786955	      9.34246349	    -15.66496550	     45.41786948	     36.03273528	     75.51802056	     -2.08382660	      4.92412201	     19.07786566	     -8.24995185	    157.49190209	      0.28602747	      1.64965994	     -7.89814249	    -11.21162893
      2.88135593	     -0.46229889	     -8.82720525	     88.95103935	      0.19501037	      0.87944954	      0.63375607	      5.29424626	     -0.89838296	      3.13541278	      7.65535099	      0.13361108	     28.50378225	      5.83026874	      0.00000000	      8.58327982	      1.15002011	     12.74568028	     13.13627671	      0.22927128	     29.24838741	     -9.56137523	      0.00000000	      0.11773144	     -0.06970551	     -0.56419112	      0.21863906	     -0.09270832	     -0.59945306	      0.19342099	     -0.16948197	     -0.59945306	      0.13455527	     -0.16948197	     -0.49366723	      0.10932542	     -0.14214347	     -0.45840528	      0.06727175	     -0.10797383	     -0.42314334	      0.84094392	     -0.78852262	     -3.13786174	      0.00000000	      0.00000000	     27.80011256	     11.09079301	      7.14362737	      9.74824322	    -16.04987403	     45.32195855	     36.86874788	     75.22702687	     -2.09816413	      5.69905925	     19.73463544	     -7.82005583	    152.15355476	      0.29212470	      1.43823658	     -7.29953664	    -14.02033612
      2.89830508	     -0.48417853	     -9.04410439	     88.42278126	      0.19423261	      0.88001032	      0.63510666	      5.80870595	     -0.97397893	      3.22166539	      7.97390406	      0.13917088	     28.22486804	      6.30091138	      0.00000000	      8.82467011	      1.15093653	     12.21068062	     12.97492331	      0.22645513	     28.78618544	     -9.51287125	      0.00000000	      0.12636027	     -0.01774221	     -0.55715502	      0.23466366	     -0.02359714	     -0.59197721	      0.20759729	     -0.04313841	     -0.59197721	      0.14441715	     -0.04313841	     -0.48751064	      0.11733815	     -0.03617992	     -0.45268845	      0.07220226	     -0.02748269	     -0.41786627	      0.90257877	     -0.20070345	     -3.09872908	      0.00000000	      0.00000000	     27.91240548	     10.00508440	      6.24057484	     10.23480161	    -16.50088504	     45.19310650	     37.78081494	     76.45234117	     -2.92423928	      5.96137353	     20.52022547	     -7.37435239	    149.31568897	      0.28756927	      1.22019787	     -7.51410797	    -16.82700052
      2.91525424	     -0.44679754	     -9.20783611	     88.00676480	      0.19317374	      0.88075501	      0.63659485	      6.24866946	     -1.02241127	      2.89338277	      8.28274073	      0.14456110	     28.18807063	      7.17788092	      0.00000000	      9.01047052	      1.11201613	     11.86324137	     12.76649934	      0.22281745	     28.21529500	     -9.55721425	      0.00000000	      0.11819209	      0.03891765	     -0.51783607	      0.21949453	      0.05176047	     -0.55020082	      0.19417779	      0.09462437	     -0.55020082	      0.13508174	      0.09462437	     -0.45310656	      0.10975318	      0.07936087	     -0.42074181	      0.06753496	      0.06028344	     -0.38837705	      0.84423429	      0.44024424	     -2.88004887	      0.00000000	      0.00000000	     27.94458767	      8.49264429	      5.13412669	     10.51296965	    -16.90944110	     43.76908824	     38.91654923	     80.95456015	     -3.79461489	      6.13855043	     21.48881654	     -6.86483573	    148.15039411	      0.27248627	      1.12205840	     -7.84947127	    -19.30184439
      2.93220339	     -0.43398708	     -9.31933717	     87.62824150	      0.19192960	      0.88167311	      0.63821675	      6.57989048	     -1.09309544	      2.82549760	      8.48477376	      0.14808724	     28.15240270	      7.65157402	      0.00000000	      9.12709727	      1.12014830	     11.63658768	     12.50526672	      0.21825808	     27.57222289	     -9.78670592	      0.00000000	      0.10230597	      0.08499817	     -0.44270544	      0.18999242	      0.11304757	     -0.47037453	      0.16807848	      0.20666456	     -0.47037453	      0.11692550	      0.20666456	     -0.38736726	      0.09500133	      0.17332828	     -0.35969817	      0.05845763	      0.13166217	     -0.33202908	      0.73076134	      0.96151635	     -2.46219487	      0.00000000	      0.00000000	     27.92118192	      6.69574914	      3.53954962	     11.15736781	    -17.59176738	     44.02222291	     40.06810867	     84.50161002	     -5.86700809	      5.53063932	     22.59846849	     -6.31240238	    148.61286131	      0.25214080	      1.10589975	     -9.18785384	    -21.17542362
      2.94915254	     -0.26535076	     -9.31618310	     87.36727012	      0.19057795	      0.88273089	      0.63947596	      6.75667120	     -1.02136082	      2.60685940	      8.70921364	      0.15200445	     28.31847180	      8.33421623	      0.00000000	      9.07504200	      0.98796146	     11.70035424	     12.21287034	      0.21315480	     26.95821931	    -10.09722117	      0.00000000	      0.07635733	      0.14500394	     -0.33282563	      0.14180320	      0.19285524	     -0.35362723	      0.12544746	      0.35256259	     -0.35362723	      0.08726879	      0.35256259	     -0.29122243	      0.07090542	      0.29569204	     -0.27042083	      0.04363058	      0.22461111	     -0.24961922	      0.54541279	      1.64031360	     -1.85107631	      0.00000000	      0.00000000	     27.86704278	      5.01449366	      2.45128809	     11.68840678	    -18.46487322	     44.35024408	     41.36422207	     87.49046867	     -7.93292358	      4.38974369	     23.90251694	     -5.58908864	    150.01906593	      0.23035944	      1.13289631	    -10.42214880	    -22.39989668
      2.96610169	     -0.21132628	     -9.29636391	     87.04126175	      0.18927439	      0.88374033	      0.64077870	      6.94487536	     -1.10227674	      2.03118665	      8.96602919	      0.15648673	     28.58479436	      9.56492982	      0.00000000	      8.96879499	      0.99349256	     11.94879448	     11.84297201	      0.20669885	     26.30435740	    -10.81269390	      0.00000000	      0.05558972	      0.18061209	     -0.18316352	      0.10323566	      0.24021408	     -0.19461124	      0.09132835	      0.43914024	     -0.19461124	      0.06353349	      0.43914024	     -0.16026808	      0.05162061	      0.36830418	     -0.14882036	      0.03176396	      0.27976813	     -0.13737264	      0.39707180	      2.04312010	     -1.01870056	      0.00000000	      0.00000000	     27.80742362	      3.74374837	      1.24165986	     12.23996445	    -19.34653019	     45.39731289	     42.52224102	     88.31998416	    -10.88842505	      2.37179262	     25.38246286	     -4.77880464	    151.70187984	      0.21274712	      1.14713861	    -11.88085796	    -22.98981012
      2.98305085	     -0.18499138	     -9.26729639	     86.66323437	      0.18808041	      0.88458662	      0.64192903	      7.09392816	     -1.21144193	      1.49652866	      9.15558316	      0.15979507	     28.86591064	     10.82815557	      0.00000000	      8.85442671	      1.02085439	     12.15893069	     11.50173756	      0.20074319	     25.78204141	    -11.55615373	      0.00000000	      0.04285369	      0.20805320	     -0.02299538	      0.07958359	      0.27671076	     -0.02443260	      0.07040433	      0.50586055	     -0.02443260	      0.04897748	      0.50586055	     -0.02012096	      0.03979394	      0.42426208	     -0.01868375	      0.02448660	      0.32227441	     -0.01724654	      0.30609961	      2.35353940	     -0.12789343	      0.00000000	      0.00000000	     27.72632007	      2.94661739	      0.67086936	     12.47506389	    -20.02236082	     45.54889968	     43.71350306	     88.61992254	    -13.25164144	      0.13565816	     26.90646215	     -3.86011630	    152.23145268	      0.20145848	      1.13403136	    -12.58300712	    -23.31150359
      3.00000000	     -0.23877078	     -9.16760595	     86.28962844	      0.18714288	      0.88528753	      0.64302756	      7.20424369	     -1.42121503	      0.65311256	      9.41914134	      0.16439503	     29.23262578	     12.48952745	      0.00000000	      8.64160194	      1.12358614	     12.61295048	     11.12648791	      0.19419385	     25.34039668	    -12.45657141	      0.00000000	      0.02784316	      0.21612105	      0.13401328	      0.05170754	      0.28744100	      0.14238911	      0.04574353	      0.52547672	      0.14238911	      0.03182195	      0.52547672	      0.11726162	      0.02585516	      0.44071405	      0.10888579	      0.01590958	      0.33477151	      0.10050996	      0.19888092	      2.44480455	      0.74534166	      0.00000000	      0.00000000	     27.63553472	      2.64047290	      0.38183326	     12.35541942	    -20.39907447	     44.51625459	     45.09835946	     88.66179551	    -14.62424512	     -1.61520138	     28.46655208	     -2.92813830	    152.30108827	      0.19326049	      1.07784202	    -12.70280534	    -23.50677195
      3.01694915	     -0.27419431	     -9.06538678	     85.91826127	      0.18639067	      0.88587674	      0.64381999	      7.22059012	     -1.54416981	      0.62504434	      9.50881026	      0.16596005	     29.32971548	     13.13728497	      0.00000000	      8.44864896	      1.17057931	     12.58082161	     10.85057815	      0.18937831	     25.15669895	    -12.72197425	      0.00000000	      0.02245889	      0.22395864	      0.27032039	      0.04170840	      0.29786499	      0.28721542	      0.03689771	      0.54453304	      0.28721542	      0.02566826	      0.54453304	      0.23653034	      0.02085532	      0.45669646	      0.21963532	      0.01283301	      0.34691193	      0.20274029	      0.16042160	      2.53346492	      1.50344093	      0.00000000	      0.00000000	     27.53194998	      2.73664045	      0.81755960	     11.84000424	    -20.55743681	     42.39588492	     46.98712822	     88.54941911	    -15.11199865	     -2.25112594	     29.83181902	     -1.97177242	    152.03813268	      0.18771276	      1.03851093	    -12.60741687	    -23.63480017
